<?xml version="1.0" encoding="UTF-8" standalone="no"?>
<!-- Created with Inkscape (http://www.inkscape.org/) -->

<svg
   width="128mm"
   height="128mm"
   viewBox="0 0 128 128"
   version="1.1"
   id="svg1"
   xmlns="http://www.w3.org/2000/svg"
   xmlns:svg="http://www.w3.org/2000/svg">
  <defs
     id="defs1" />
  <g
     id="layer1">
    <g
       id="g7"
       style="clip-rule:evenodd;fill-rule:evenodd;stroke-linejoin:round;stroke-miterlimit:1.41421"
       transform="matrix(0.64366657,0,0,0.64366657,8.4055528,35.278632)">
      <g
         id="g6">
        <path
           d="M 169.486,87.981 H 37.451 l -0.746,-0.64 v 0 C 36.646,87.291 36.59,87.239 36.535,87.184 36.416,87.065 36.307,86.936 36.209,86.798 36.082,86.636 35.98,86.457 35.859,86.147 35.841,86.1 35.824,86.053 35.809,86.005 L 35.808,86.004 35.807,86.002 35.805,85.995 35.802,85.987 35.8,85.981 35.799,85.975 35.798,85.973 35.797,85.969 c -0.014,-0.043 -0.027,-0.086 -0.038,-0.13 -0.014,-0.051 -0.027,-0.104 -0.038,-0.157 v 0 0 L 35.719,85.673 35.717,85.664 V 85.659 L 35.716,85.654 35.714,85.648 V 85.644 L 35.712,85.637 35.71,85.625 v -0.001 0 C 35.697,85.56 35.687,85.496 35.679,85.432 35.667,85.334 35.66,85.235 35.658,85.137 v -0.001 0 l -0.001,-0.004 v -0.017 -0.003 -10e-4 -0.003 -0.016 -0.005 0 -0.002 -0.018 -0.004 0 c 0,-0.008 0,-0.016 0,-0.024 v -0.001 -0.004 -0.018 -0.001 -0.001 -0.008 -0.013 -0.002 l 0.001,-0.002 V 84.981 84.97 84.967 84.964 l 10e-4,-0.007 v -0.01 -0.004 -0.003 -0.007 l 10e-4,-0.009 v -0.005 -0.004 l 0.001,-0.006 v -0.008 -0.005 l 10e-4,-0.005 v -0.006 -0.007 l 10e-4,-0.006 v -0.006 -0.005 l 0.001,-0.006 v -0.007 l 10e-4,-0.006 v -0.005 l 10e-4,-0.005 v -0.008 l 0.001,-0.007 v -0.004 -0.004 l 10e-4,-0.009 10e-4,-0.007 v -0.004 -0.003 l 0.001,-0.01 10e-4,-0.008 v -0.002 l 10e-4,-0.003 0.001,-0.011 10e-4,-0.008 V 84.742 84.74 l 10e-4,-0.012 0.001,-0.009 v -10e-4 l 10e-4,-0.001 10e-4,-0.015 0.001,-0.007 v 0 c 10e-4,-0.008 0.002,-0.016 0.003,-0.024 v 0 l 10e-4,-0.008 0.002,-0.014 10e-4,-0.001 v -0.002 l 10e-4,-0.008 0.002,-0.012 v -0.002 -0.002 l 10e-4,-0.008 0.002,-0.011 V 84.6 l 10e-4,-0.002 0.001,-0.008 0.002,-0.01 v -0.003 l 0.001,-0.003 10e-4,-0.008 10e-4,-0.008 0.001,-0.005 10e-4,-0.004 10e-4,-0.006 0.001,-0.008 10e-4,-0.005 10e-4,-0.005 0.001,-0.006 0.002,-0.007 0.001,-0.006 10e-4,-0.005 10e-4,-0.005 0.001,-0.006 10e-4,-0.007 10e-4,-0.006 0.001,-0.005 10e-4,-0.005 0.002,-0.007 10e-4,-0.007 10e-4,-0.004 10e-4,-0.005 0.002,-0.008 10e-4,-0.007 0.001,-0.003 10e-4,-0.004 0.002,-0.009 0.002,-0.008 v -0.002 l 0.001,-0.004 0.002,-0.01 0.002,-0.007 10e-4,-0.003 v -0.002 l 0.003,-0.012 0.002,-0.007 v -0.002 l 10e-4,-0.002 0.003,-0.013 0.002,-0.007 v -0.001 -0.001 l 0.005,-0.018 10e-4,-0.004 v 0 c 0.002,-0.008 0.004,-0.015 0.006,-0.023 v 0 l 10e-4,-0.004 0.005,-0.018 v -0.001 -10e-4 l 0.002,-0.007 0.004,-0.013 v -0.002 l 10e-4,-0.002 0.002,-0.007 0.003,-0.012 10e-4,-0.002 0.001,-0.002 0.002,-0.007 0.003,-0.011 10e-4,-0.003 0.001,-0.003 0.002,-0.007 0.003,-0.009 0.001,-0.004 10e-4,-0.003 0.002,-0.007 0.003,-0.008 10e-4,-0.004 10e-4,-0.004 0.002,-0.007 0.003,-0.007 10e-4,-0.005 0.002,-0.005 0.002,-0.005 0.002,-0.007 0.002,-0.006 0.002,-0.005 10e-4,-0.005 0.002,-0.006 0.003,-0.006 0.002,-0.006 0.001,-0.005 0.002,-0.005 0.003,-0.007 0.002,-0.006 10e-4,-0.004 0.002,-0.005 0.003,-0.007 0.002,-0.007 10e-4,-0.004 0.002,-0.003 0.003,-0.009 0.003,-0.007 0.001,-0.003 10e-4,-0.003 0.003,-0.009 0.003,-0.008 10e-4,-0.002 0.001,-0.003 0.004,-0.009 0.003,-0.009 10e-4,-0.002 0.001,-0.001 0.003,-0.009 0.004,-0.011 10e-4,-0.001 v -10e-4 l 0.001,-0.003 c 0.052,-0.127 0.113,-0.25 0.182,-0.37 0.018,-0.033 0.038,-0.065 0.058,-0.097 l 0.001,-0.002 10e-4,-0.001 0.003,-0.005 0.004,-0.006 0.005,-0.008 0.003,-0.005 10e-4,-10e-4 0.001,-0.002 c 0.024,-0.036 0.047,-0.072 0.072,-0.106 0.005,-0.007 0.01,-0.014 0.015,-0.021 0.094,-0.131 0.199,-0.254 0.312,-0.367 0.054,-0.054 0.111,-0.107 0.169,-0.157 h 10e-4 L 131.022,1.984 h 0.001 c 0.192,-0.166 0.405,-0.305 0.632,-0.417 0.185,-0.102 0.383,-0.176 0.718,-0.244 0.101,-0.021 0.204,-0.036 0.307,-0.047 v 0 h 0.005 l 0.016,-0.002 h 0.002 0.002 l 0.018,-0.001 0.002,-10e-4 v 0 c 0.083,-0.007 0.166,-0.01 0.249,-0.01 0.012,0 0.024,0 0.035,0 h 0.014 l 0.011,10e-4 h 0.005 0.009 0.004 0.005 l 0.015,0.001 h 0.002 c 0.018,0 0.036,10e-4 0.054,0.002 0.104,0.005 0.208,0.016 0.311,0.032 l 0.019,0.003 0.005,0.001 0.009,0.002 0.01,10e-4 0.005,0.001 0.018,0.003 0.001,0.001 c 0.083,0.014 0.164,0.033 0.245,0.054 0.341,0.092 0.541,0.181 0.724,0.3 0.029,0.017 0.058,0.035 0.087,0.053 0.194,0.121 0.373,0.263 0.533,0.424 h 0.001 l 33.544,33.544 c 0.159,0.207 0.346,0.395 0.477,0.621 0.353,0.612 0.312,0.818 0.402,1.5 v 44.175 h -0.033 z M 46.77,82.063 h 18.814 l 48.047,-57.28 z m 83.204,0 V 14.636 L 73.416,82.063 Z m 33.545,0 V 43.952 l -24.99,38.111 z M 135.974,11.505 V 75.017 L 160.89,37.019 c 0.108,-0.125 0.195,-0.232 0.273,-0.326 z"
           style="fill:#e25454"
           id="path6" />
      </g>
      <path
         d="M 3.224,76.32 V 37.806 c 0.09,-0.682 0.049,-0.888 0.402,-1.5 0.13,-0.226 0.318,-0.414 0.477,-0.621 L 37.647,2.141 v 0 c 0.16,-0.161 0.339,-0.303 0.533,-0.424 0.029,-0.018 0.058,-0.036 0.088,-0.053 0.182,-0.119 0.382,-0.208 0.724,-0.3 0.08,-0.021 0.162,-0.04 0.244,-0.054 l 0.001,-0.001 h 0.004 l 0.014,-0.003 h 0.004 L 39.26,1.305 39.27,1.304 39.279,1.302 h 0.002 l 0.003,-0.001 0.019,-0.003 h 0.001 v 0 c 0.103,-0.016 0.206,-0.027 0.31,-0.032 0.018,-0.001 0.037,-0.002 0.055,-0.002 h 0.001 l 0.003,-0.001 h 0.012 0.005 0.005 0.008 0.006 l 0.003,-10e-4 h 0.007 0.013 10e-4 v 0 c 0.012,0 0.023,0 0.035,0 0.083,0 0.166,0.003 0.249,0.01 l 0.021,0.002 h 0.003 l 0.021,0.002 c 0.104,0.011 0.206,0.026 0.308,0.047 0.334,0.068 0.533,0.142 0.717,0.244 0.227,0.112 0.44,0.251 0.633,0.417 v 0 l 94.318,80.801 v 0 c 0.059,0.05 0.115,0.103 0.169,0.157 0.114,0.113 0.218,0.236 0.312,0.367 0.005,0.007 0.01,0.014 0.015,0.021 0.025,0.034 0.049,0.07 0.072,0.106 l 0.006,0.008 0.004,0.008 0.004,0.006 0.006,0.008 c 0.02,0.032 0.039,0.064 0.058,0.097 0.069,0.12 0.129,0.243 0.181,0.37 l 0.002,0.005 0.004,0.011 0.005,0.012 0.003,0.009 0.004,0.009 0.002,0.005 0.003,0.008 0.003,0.009 0.003,0.006 0.003,0.007 0.003,0.009 0.002,0.007 0.003,0.007 0.003,0.007 0.003,0.009 0.002,0.006 0.002,0.007 0.002,0.005 0.002,0.005 0.002,0.006 0.002,0.006 0.002,0.006 0.002,0.005 0.001,0.005 0.002,0.006 0.003,0.007 0.002,0.005 0.001,0.005 0.002,0.005 0.002,0.007 0.002,0.007 0.003,0.008 0.002,0.008 0.002,0.007 0.003,0.007 0.003,0.009 0.002,0.007 0.001,0.006 0.003,0.011 0.003,0.007 0.001,0.004 0.003,0.012 0.003,0.011 0.006,0.02 0.001,0.002 0.006,0.022 c 0.002,0.008 0.004,0.015 0.006,0.023 l 0.005,0.022 0.006,0.022 0.001,0.004 10e-4,0.007 0.003,0.012 0.001,0.005 0.002,0.007 0.002,0.01 0.002,0.006 0.001,0.008 0.002,0.009 0.002,0.007 0.002,0.007 10e-4,0.008 0.002,0.009 0.001,0.007 0.002,0.007 10e-4,0.005 0.001,0.005 0.001,0.006 0.001,0.007 0.002,0.006 10e-4,0.005 0.001,0.005 0.001,0.006 0.001,0.007 0.001,0.006 0.002,0.01 0.001,0.008 0.002,0.006 0.001,0.009 0.001,0.008 0.002,0.008 0.001,0.006 0.001,0.01 0.001,0.008 0.001,0.005 0.002,0.011 0.001,0.008 0.001,0.004 0.003,0.02 v 0.003 l 0.003,0.022 c 0.001,0.008 0.002,0.016 0.003,0.024 l 0.003,0.022 0.002,0.023 10e-4,0.004 0.001,0.008 0.001,0.011 v 0.005 l 0.001,0.008 0.001,0.01 0.001,0.007 V 84.8 l 10e-4,0.009 0.001,0.008 v 0.007 l 0.001,0.008 0.001,0.01 v 0.006 l 0.001,0.007 v 0.006 0.005 l 0.001,0.006 v 0.006 0.007 l 10e-4,0.006 v 0.005 0.005 l 0.001,0.008 v 0.006 l 0.001,0.009 v 0.009 0.007 l 0.001,0.007 v 0.01 0.007 0.006 l 0.001,0.011 v 0.008 0.004 0.021 0.002 l 0.001,0.023 c 0,0.008 0,0.016 0,0.024 v 0 0.004 0.018 0.002 0 0.005 l -0.001,0.016 v 0.003 10e-4 0.003 0.017 0.004 0 0.001 c -0.003,0.098 -0.01,0.197 -0.022,0.295 -0.008,0.064 -0.018,0.128 -0.03,0.192 v 0 0.001 l -0.003,0.012 -0.001,0.007 -0.001,0.004 -0.001,0.006 -10e-4,0.005 -0.001,0.005 -0.002,0.009 -0.002,0.009 v 0 0 c -0.011,0.053 -0.024,0.106 -0.037,0.157 -0.012,0.044 -0.025,0.087 -0.038,0.13 l -0.001,0.004 -0.001,0.002 -0.002,0.006 -0.002,0.006 -0.003,0.008 -0.002,0.007 -0.001,0.002 v 10e-4 c -0.016,0.048 -0.033,0.095 -0.051,0.142 -0.12,0.31 -0.223,0.489 -0.35,0.651 -0.098,0.138 -0.207,0.267 -0.326,0.386 -0.054,0.055 -0.111,0.107 -0.169,0.157 v 0 l -0.747,0.64 H 3.257 V 76.32 Z m 122.749,5.743 -66.862,-57.28 48.047,57.28 z m -26.646,0 -56.559,-67.427 v 67.427 z m -65.113,0 L 9.224,43.952 V 82.063 Z M 36.768,11.505 V 75.017 L 11.853,37.019 C 11.744,36.894 11.658,36.787 11.58,36.693 Z"
         style="fill:#e25454"
         id="path7" />
    </g>
  </g>
</svg>
